<?xml version="1.0" standalone="no"?>
<!DOCTYPE svg PUBLIC "-//W3C//DTD SVG 20010904//EN"
 "http://www.w3.org/TR/2001/REC-SVG-20010904/DTD/svg10.dtd">
<svg version="1.0" xmlns="http://www.w3.org/2000/svg"
 width="576.000000pt" height="576.000000pt" viewBox="0 0 576.000000 576.000000"
 preserveAspectRatio="xMidYMid meet">
<metadata>
Created by potrace 1.11, written by Peter Selinger 2001-2013
</metadata>
<g transform="translate(0.000000,576.000000) scale(0.100000,-0.100000)"
fill="#000000" stroke="none">
<path d="M3298 4485 c-2 -2 -55 -6 -118 -9 -135 -5 -261 -20 -360 -41 -14 -3
-34 -7 -45 -9 -125 -24 -467 -138 -502 -168 -7 -6 -13 -8 -13 -4 0 8 -301
-144 -318 -161 -7 -7 -17 -13 -22 -13 -5 0 -29 -13 -52 -29 -24 -15 -70 -46
-103 -67 -33 -21 -64 -42 -70 -47 -263 -199 -376 -295 -498 -424 -22 -24 -44
-43 -49 -43 -5 0 -86 59 -181 131 -95 72 -183 139 -197 149 -66 49 -226 170
-235 177 -72 60 -277 209 -301 219 -71 30 -167 0 -212 -67 -24 -34 -25 -67 -8
-149 15 -68 27 -131 28 -137 0 -5 6 -28 14 -53 7 -24 11 -46 9 -48 -2 -2 0
-15 6 -29 5 -13 11 -36 14 -51 2 -15 18 -88 35 -162 17 -74 33 -144 35 -155 5
-29 14 -69 31 -144 8 -36 17 -79 20 -96 3 -16 7 -37 10 -45 3 -8 8 -28 10 -45
3 -16 9 -41 13 -55 5 -17 -6 -86 -35 -220 -24 -107 -46 -206 -49 -220 -3 -14
-7 -35 -10 -47 -3 -13 -7 -33 -10 -45 -4 -19 -8 -39 -20 -88 -2 -6 -24 -107
-31 -140 -3 -14 -7 -34 -9 -45 -3 -11 -7 -29 -9 -40 -2 -11 -12 -53 -21 -94
-9 -40 -18 -78 -19 -85 -1 -6 -8 -37 -15 -70 -15 -68 -9 -113 20 -150 38 -48
118 -74 182 -60 22 4 245 161 321 226 6 5 38 29 71 53 33 25 71 54 85 65 22
18 179 136 242 182 13 9 32 24 43 33 110 85 164 125 171 125 4 0 33 -26 64
-57 66 -67 116 -114 215 -198 38 -33 76 -67 86 -75 9 -8 51 -40 94 -70 42 -30
82 -60 88 -66 7 -5 75 -50 152 -98 228 -143 494 -267 725 -336 41 -12 86 -26
100 -31 35 -11 205 -46 265 -54 28 -3 64 -8 80 -10 17 -2 83 -7 149 -10 65 -3
122 -8 127 -11 5 -3 9 -2 9 3 0 4 33 8 73 9 66 1 120 5 232 19 22 2 83 14 135
25 52 12 105 23 116 26 12 2 53 14 90 26 38 12 71 22 74 23 84 19 423 164 441
188 3 5 8 7 10 5 7 -5 197 106 302 176 55 36 103 66 107 66 5 0 10 4 12 8 2 4
44 39 93 77 50 38 95 74 101 80 6 5 40 35 75 65 35 30 106 98 159 150 82 83
117 121 212 234 80 95 188 272 212 349 11 34 16 72 13 95 -7 52 -26 110 -37
117 -6 4 -10 15 -10 26 0 10 -4 19 -10 19 -5 0 -10 5 -10 11 0 11 -103 167
-139 211 -137 169 -346 381 -468 475 -15 12 -39 31 -53 43 -14 12 -54 43 -90
68 -36 26 -67 49 -70 52 -26 32 -292 192 -450 270 -174 87 -425 184 -525 203
-11 2 -27 7 -35 10 -19 8 -204 45 -252 51 -21 3 -53 8 -70 11 -18 3 -75 7
-126 10 -51 2 -96 6 -101 9 -4 3 -10 4 -13 1z m952 -1390 c83 -43 134 -129
133 -222 -3 -159 -164 -269 -318 -216 -53 18 -119 78 -141 130 -20 48 -20 137
0 184 13 32 96 130 96 115 0 -4 11 1 25 10 14 9 25 13 25 8 0 -4 5 -3 12 4 16
16 128 8 168 -13z"/>
</g>
</svg>
